<svg width="1400" height="980" viewBox="0 0 1400 980" fill="none" xmlns="http://www.w3.org/2000/svg">
  <rect width="1400" height="980" fill="#F5F0EA"/>

  <rect x="54" y="42" width="1292" height="896" rx="34" fill="#FFFDF8" stroke="#E5D6C7" stroke-width="2"/>

  <text x="94" y="96" fill="#6B4B35" font-family="Arial, sans-serif" font-size="14" font-weight="700" letter-spacing="4">MARKET VILLA THEME CONCEPT</text>
  <text x="94" y="142" fill="#1C1511" font-family="Georgia, serif" font-size="46" font-weight="700" letter-spacing="-2">Atelier Vogue</text>
  <text x="94" y="174" fill="#7D6D60" font-family="Arial, sans-serif" font-size="17">Premium fashion storefront with Home, Collections, Lookbook, Size Guide, Custom Order, and Contact.</text>

  <g>
    <rect x="94" y="212" width="1212" height="324" rx="30" fill="#1C1511"/>
    <rect x="94" y="212" width="1212" height="324" rx="30" fill="url(#heroGlow)"/>

    <rect x="124" y="240" width="86" height="38" rx="19" fill="#FFFDF8" fill-opacity="0.1" stroke="#FFFDF8" stroke-opacity="0.18"/>
    <text x="145" y="265" fill="#F7E8D8" font-family="Arial, sans-serif" font-size="13" font-weight="700">HOME</text>
    <text x="238" y="265" fill="#F7E8D8" fill-opacity="0.72" font-family="Arial, sans-serif" font-size="13" font-weight="700">COLLECTIONS</text>
    <text x="366" y="265" fill="#F7E8D8" fill-opacity="0.72" font-family="Arial, sans-serif" font-size="13" font-weight="700">LOOKBOOK</text>
    <text x="474" y="265" fill="#F7E8D8" fill-opacity="0.72" font-family="Arial, sans-serif" font-size="13" font-weight="700">SIZE GUIDE</text>
    <text x="594" y="265" fill="#F7E8D8" fill-opacity="0.72" font-family="Arial, sans-serif" font-size="13" font-weight="700">CUSTOM ORDER</text>
    <rect x="1134" y="238" width="136" height="42" rx="21" fill="#C69A6D"/>
    <text x="1172" y="265" fill="#1C1511" font-family="Arial, sans-serif" font-size="14" font-weight="700">Contact</text>

    <text x="132" y="330" fill="#D7B98F" font-family="Arial, sans-serif" font-size="13" font-weight="700" letter-spacing="4">NEW SEASON</text>
    <text x="132" y="392" fill="#FFFDF8" font-family="Georgia, serif" font-size="58" font-weight="700" letter-spacing="-2">Tailored pieces for{'\n'}quiet luxury moments.</text>
    <text x="132" y="466" fill="#F7E8D8" fill-opacity="0.72" font-family="Arial, sans-serif" font-size="17">A premium storefront for ready-to-wear, bespoke tailoring, lookbooks, and WhatsApp orders.</text>
    <rect x="132" y="492" width="158" height="44" rx="22" fill="#FFFDF8"/>
    <text x="168" y="520" fill="#1C1511" font-family="Arial, sans-serif" font-size="14" font-weight="700">Shop Collection</text>
    <rect x="304" y="492" width="136" height="44" rx="22" fill="#FFFDF8" fill-opacity="0.08" stroke="#FFFDF8" stroke-opacity="0.22"/>
    <text x="340" y="520" fill="#FFFDF8" font-family="Arial, sans-serif" font-size="14" font-weight="700">Lookbook</text>

    <g>
      <rect x="822" y="258" width="390" height="238" rx="28" fill="#FFFDF8" fill-opacity="0.08" stroke="#FFFDF8" stroke-opacity="0.18"/>
      <rect x="850" y="286" width="136" height="182" rx="22" fill="#D5B996"/>
      <rect x="1010" y="286" width="174" height="84" rx="22" fill="#FFFDF8" fill-opacity="0.16"/>
      <rect x="1010" y="388" width="174" height="80" rx="22" fill="#6B4B35"/>
      <circle cx="918" cy="352" r="35" fill="#1C1511" fill-opacity="0.14"/>
      <rect x="1040" y="316" width="108" height="10" rx="5" fill="#FFFDF8" fill-opacity="0.6"/>
      <rect x="1040" y="414" width="86" height="10" rx="5" fill="#FFFDF8" fill-opacity="0.55"/>
      <rect x="1040" y="438" width="118" height="10" rx="5" fill="#FFFDF8" fill-opacity="0.25"/>
    </g>
  </g>

  <g>
    <text x="94" y="600" fill="#1C1511" font-family="Georgia, serif" font-size="32" font-weight="700" letter-spacing="-1">Collections</text>
    <text x="94" y="630" fill="#7D6D60" font-family="Arial, sans-serif" font-size="15">Separate pages for outfit categories and campaign drops.</text>

    <rect x="94" y="660" width="188" height="94" rx="24" fill="#F2E6D8" stroke="#E5D6C7"/>
    <text x="122" y="702" fill="#1C1511" font-family="Arial, sans-serif" font-size="18" font-weight="700">Dresses</text>
    <text x="122" y="730" fill="#7D6D60" font-family="Arial, sans-serif" font-size="13">Occasion-ready</text>

    <rect x="302" y="660" width="188" height="94" rx="24" fill="#FFFDF8" stroke="#E5D6C7"/>
    <text x="330" y="702" fill="#1C1511" font-family="Arial, sans-serif" font-size="18" font-weight="700">Native Wear</text>
    <text x="330" y="730" fill="#7D6D60" font-family="Arial, sans-serif" font-size="13">Bespoke cuts</text>

    <rect x="510" y="660" width="188" height="94" rx="24" fill="#FFFDF8" stroke="#E5D6C7"/>
    <text x="538" y="702" fill="#1C1511" font-family="Arial, sans-serif" font-size="18" font-weight="700">Corporate</text>
    <text x="538" y="730" fill="#7D6D60" font-family="Arial, sans-serif" font-size="13">Workwear edit</text>

    <rect x="718" y="660" width="188" height="94" rx="24" fill="#FFFDF8" stroke="#E5D6C7"/>
    <text x="746" y="702" fill="#1C1511" font-family="Arial, sans-serif" font-size="18" font-weight="700">Accessories</text>
    <text x="746" y="730" fill="#7D6D60" font-family="Arial, sans-serif" font-size="13">Finish the look</text>
  </g>

  <g>
    <rect x="948" y="582" width="358" height="172" rx="28" fill="#1C1511"/>
    <text x="980" y="624" fill="#D7B98F" font-family="Arial, sans-serif" font-size="13" font-weight="700" letter-spacing="3">LOOKBOOK</text>
    <text x="980" y="665" fill="#FFFDF8" font-family="Georgia, serif" font-size="28" font-weight="700" letter-spacing="-1">Shop styled outfits.</text>
    <text x="980" y="700" fill="#F7E8D8" fill-opacity="0.72" font-family="Arial, sans-serif" font-size="14">Editorial gallery with “Shop this look” prompts.</text>
    <rect x="980" y="720" width="124" height="34" rx="17" fill="#C69A6D"/>
    <text x="1006" y="742" fill="#1C1511" font-family="Arial, sans-serif" font-size="13" font-weight="700">View Looks</text>
  </g>

  <g>
    <text x="94" y="818" fill="#1C1511" font-family="Georgia, serif" font-size="31" font-weight="700" letter-spacing="-1">Premium pages included</text>
    <rect x="94" y="850" width="174" height="48" rx="18" fill="#FFFDF8" stroke="#E5D6C7"/>
    <text x="130" y="880" fill="#1C1511" font-family="Arial, sans-serif" font-size="15" font-weight="700">Product Detail</text>
    <rect x="286" y="850" width="150" height="48" rx="18" fill="#FFFDF8" stroke="#E5D6C7"/>
    <text x="322" y="880" fill="#1C1511" font-family="Arial, sans-serif" font-size="15" font-weight="700">Size Guide</text>
    <rect x="454" y="850" width="178" height="48" rx="18" fill="#FFFDF8" stroke="#E5D6C7"/>
    <text x="490" y="880" fill="#1C1511" font-family="Arial, sans-serif" font-size="15" font-weight="700">Custom Order</text>
    <rect x="650" y="850" width="140" height="48" rx="18" fill="#FFFDF8" stroke="#E5D6C7"/>
    <text x="690" y="880" fill="#1C1511" font-family="Arial, sans-serif" font-size="15" font-weight="700">Reviews</text>
    <rect x="808" y="850" width="132" height="48" rx="18" fill="#FFFDF8" stroke="#E5D6C7"/>
    <text x="846" y="880" fill="#1C1511" font-family="Arial, sans-serif" font-size="15" font-weight="700">Contact</text>
  </g>

  <defs>
    <linearGradient id="heroGlow" x1="94" y1="212" x2="1306" y2="536" gradientUnits="userSpaceOnUse">
      <stop stop-color="#1C1511"/>
      <stop offset="0.55" stop-color="#36261D"/>
      <stop offset="1" stop-color="#8E6444"/>
    </linearGradient>
  </defs>
</svg>
