<svg width="1200" height="900" viewBox="0 0 1200 900" fill="none" xmlns="http://www.w3.org/2000/svg">
  <rect width="1200" height="900" fill="#F7F2FB"/>
  <rect x="90" y="56" width="1020" height="788" rx="32" fill="#FFFFFF" stroke="#E6D9F2" stroke-width="2"/>

  <text x="130" y="112" fill="#6D28D9" font-family="Arial, sans-serif" font-size="16" font-weight="700" letter-spacing="4">SIMPLE ONE PAGE</text>
  <rect x="884" y="82" width="176" height="42" rx="21" fill="#211331"/>
  <text x="924" y="109" fill="#FFFFFF" font-family="Arial, sans-serif" font-size="15" font-weight="700">Add Logo</text>

  <rect x="130" y="154" width="940" height="266" rx="28" fill="#FBF8FF" stroke="#E6D9F2" stroke-width="1.5"/>
  <g>
    <rect x="166" y="196" width="62" height="62" rx="20" fill="#211331"/>
    <text x="184" y="234" fill="#FFFFFF" font-family="Arial, sans-serif" font-size="20" font-weight="700">MV</text>
    <text x="166" y="300" fill="#211331" font-family="Arial, sans-serif" font-size="52" font-weight="700" letter-spacing="-2">Market Villa</text>
    <text x="166" y="339" fill="#6F637D" font-family="Arial, sans-serif" font-size="22" font-weight="600">Fresh products, simple ordering.</text>
    <text x="166" y="374" fill="#6F637D" font-family="Arial, sans-serif" font-size="18">A clean page with business description, products, and contact details.</text>
  </g>

  <g>
    <rect x="704" y="190" width="318" height="194" rx="28" fill="#EFE7F6"/>
    <rect x="729" y="214" width="268" height="146" rx="22" fill="#FFFFFF" fill-opacity="0.72" stroke="#FFFFFF" stroke-width="2"/>
    <circle cx="802" cy="270" r="30" fill="#D9C8EC"/>
    <rect x="848" y="249" width="105" height="14" rx="7" fill="#D9C8EC"/>
    <rect x="848" y="279" width="78" height="12" rx="6" fill="#E6D9F2"/>
  </g>

  <text x="130" y="487" fill="#211331" font-family="Arial, sans-serif" font-size="30" font-weight="700" letter-spacing="-1">Product preview</text>
  <text x="130" y="520" fill="#6F637D" font-family="Arial, sans-serif" font-size="17">Three placeholder products show the page rhythm before real uploads.</text>

  <g>
    <rect x="130" y="558" width="286" height="190" rx="22" fill="#FFFFFF" stroke="#E6D9F2" stroke-width="1.5"/>
    <rect x="130" y="558" width="286" height="82" rx="22" fill="#EFE7F6"/>
    <rect x="130" y="612" width="286" height="28" fill="#EFE7F6"/>
    <text x="154" y="674" fill="#8B7B99" font-family="Arial, sans-serif" font-size="13" font-weight="700" letter-spacing="2">PRODUCT</text>
    <text x="154" y="706" fill="#211331" font-family="Arial, sans-serif" font-size="21" font-weight="700">Starter Product</text>
    <text x="154" y="733" fill="#211331" font-family="Arial, sans-serif" font-size="18" font-weight="700">NGN 12,500</text>
    <rect x="325" y="704" width="64" height="34" rx="17" fill="#211331"/>
    <text x="345" y="727" fill="#FFFFFF" font-family="Arial, sans-serif" font-size="14" font-weight="700">Add</text>
  </g>

  <g>
    <rect x="457" y="558" width="286" height="190" rx="22" fill="#FFFFFF" stroke="#E6D9F2" stroke-width="1.5"/>
    <rect x="457" y="558" width="286" height="82" rx="22" fill="#E8DEF1"/>
    <rect x="457" y="612" width="286" height="28" fill="#E8DEF1"/>
    <text x="481" y="674" fill="#8B7B99" font-family="Arial, sans-serif" font-size="13" font-weight="700" letter-spacing="2">PRODUCT</text>
    <text x="481" y="706" fill="#211331" font-family="Arial, sans-serif" font-size="21" font-weight="700">Customer Pick</text>
    <text x="481" y="733" fill="#211331" font-family="Arial, sans-serif" font-size="18" font-weight="700">NGN 12,500</text>
    <rect x="652" y="704" width="64" height="34" rx="17" fill="#211331"/>
    <text x="672" y="727" fill="#FFFFFF" font-family="Arial, sans-serif" font-size="14" font-weight="700">Add</text>
  </g>

  <g>
    <rect x="784" y="558" width="286" height="190" rx="22" fill="#FFFFFF" stroke="#E6D9F2" stroke-width="1.5"/>
    <rect x="784" y="558" width="286" height="82" rx="22" fill="#F4EDF9"/>
    <rect x="784" y="612" width="286" height="28" fill="#F4EDF9"/>
    <text x="808" y="674" fill="#8B7B99" font-family="Arial, sans-serif" font-size="13" font-weight="700" letter-spacing="2">PRODUCT</text>
    <text x="808" y="706" fill="#211331" font-family="Arial, sans-serif" font-size="21" font-weight="700">Popular Bundle</text>
    <text x="808" y="733" fill="#211331" font-family="Arial, sans-serif" font-size="18" font-weight="700">NGN 12,500</text>
    <rect x="979" y="704" width="64" height="34" rx="17" fill="#211331"/>
    <text x="999" y="727" fill="#FFFFFF" font-family="Arial, sans-serif" font-size="14" font-weight="700">Add</text>
  </g>

  <rect x="130" y="782" width="940" height="62" rx="22" fill="#211331"/>
  <text x="160" y="821" fill="#FFFFFF" font-family="Arial, sans-serif" font-size="18" font-weight="700">Market Villa</text>
  <text x="390" y="821" fill="#FFFFFF" fill-opacity="0.7" font-family="Arial, sans-serif" font-size="16">WhatsApp contact</text>
  <text x="604" y="821" fill="#FFFFFF" fill-opacity="0.7" font-family="Arial, sans-serif" font-size="16">Business location</text>
  <text x="824" y="821" fill="#FFFFFF" fill-opacity="0.7" font-family="Arial, sans-serif" font-size="16">Opening hours</text>
</svg>
